<?xml version="1.0" standalone="no"?>
<!DOCTYPE svg PUBLIC "-//W3C//DTD SVG 20010904//EN"
 "http://www.w3.org/TR/2001/REC-SVG-20010904/DTD/svg10.dtd">
<svg version="1.0" xmlns="http://www.w3.org/2000/svg"
 width="256.000000pt" height="256.000000pt" viewBox="0 0 256.000000 256.000000"
 preserveAspectRatio="xMidYMid meet">

<g transform="translate(0.000000,256.000000) scale(0.100000,-0.100000)"
fill="#000000" stroke="none">
<path d="M530 2366 c-161 -45 -293 -179 -336 -341 -20 -73 -20 -1417 0 -1490
44 -164 177 -297 341 -341 73 -20 1417 -20 1490 0 164 44 297 177 341 341 11
39 14 196 14 745 0 549 -3 706 -14 745 -44 164 -177 297 -341 341 -70 19
-1427 19 -1495 0z m1010 -256 c229 -47 372 -176 425 -385 22 -87 20 -123 -7
-135 -28 -11 -482 -35 -497 -26 -5 4 -17 30 -25 59 -8 28 -23 63 -32 76 -56
79 -254 82 -282 3 -20 -59 16 -80 208 -122 230 -51 389 -108 492 -177 82 -54
127 -106 169 -198 29 -61 33 -81 37 -175 3 -81 0 -121 -13 -165 -59 -204 -205
-342 -432 -407 -70 -21 -100 -23 -293 -23 -244 0 -321 12 -448 71 -136 62
-253 215 -297 389 -18 70 -20 141 -4 151 6 3 121 13 255 22 256 16 274 14 274
-27 0 -37 32 -122 57 -152 39 -46 96 -69 176 -69 37 0 82 6 101 14 73 31 98
108 51 164 -32 38 -99 66 -228 97 -307 72 -477 160 -568 291 -84 122 -96 299
-29 439 72 152 219 253 418 289 120 22 377 20 492 -4z"/>
</g>
</svg>
